# xmcd CD database file
#
# Track frame offsets:
#	150
#	16675
#	31911
#	52131
#	69348
#	86651
#	103208
#	120922
#	135994
#	159308
#	184740
#
# Disc length: 3332 seconds
#
# Revision: 0
# Processed by: cddbd v1.5.2PL0 Copyright (c) Steve Scherf et al.
# Submitted via: CDex 1.51
#
DISCID=820d020b
DTITLE=Secret Garden - Winter Poem
DYEAR=2011
DGENRE=New Age
TTITLE0=Make A Wish
TTITLE1=Song For A New Beginning
TTITLE2=Dream 1
TTITLE3=Frozen In Time
TTITLE4=Anticipation
TTITLE5=Fionnuala's Cookie Jar
TTITLE6=Mary's Lament
TTITLE7=Song At The End Of The Day
TTITLE8=Lament For A Frozen Flower
TTITLE9=Powered By Nature
TTITLE10=Suite
EXTD=YEAR: 2011
EXTT0=
EXTT1=
EXTT2=
EXTT3=
EXTT4=
EXTT5=
EXTT6=
EXTT7=
EXTT8=
EXTT9=
EXTT10=
PLAYORDER=
